<?xml version="1.0" encoding="utf-8" standalone="no"?>
<!DOCTYPE svg PUBLIC "-//W3C//DTD SVG 1.1//EN"
  "http://www.w3.org/Graphics/SVG/1.1/DTD/svg11.dtd">
<svg xmlns:xlink="http://www.w3.org/1999/xlink" width="1440pt" height="720pt" viewBox="0 0 1440 720" xmlns="http://www.w3.org/2000/svg" version="1.1">
 <metadata>
  <rdf:RDF xmlns:dc="http://purl.org/dc/elements/1.1/" xmlns:cc="http://creativecommons.org/ns#" xmlns:rdf="http://www.w3.org/1999/02/22-rdf-syntax-ns#">
   <cc:Work>
    <dc:type rdf:resource="http://purl.org/dc/dcmitype/StillImage"/>
    <dc:date>2023-01-28T09:45:20.009819</dc:date>
    <dc:format>image/svg+xml</dc:format>
    <dc:creator>
     <cc:Agent>
      <dc:title>Matplotlib v3.6.2, https://matplotlib.org/</dc:title>
     </cc:Agent>
    </dc:creator>
   </cc:Work>
  </rdf:RDF>
 </metadata>
 <defs>
  <style type="text/css">*{stroke-linejoin: round; stroke-linecap: butt}</style>
 </defs>
 <g id="figure_1">
  <g id="patch_1">
   <path d="M 0 720 
L 1440 720 
L 1440 0 
L 0 0 
z
" style="fill: #ffffff"/>
  </g>
  <g id="axes_1">
   <g id="patch_2">
    <path d="M 730.663429 337.176058 
C 730.186312 337.308529 729.71287 337.453898 729.243625 337.612005 
C 728.77438 337.770113 728.309503 337.9409 727.849505 338.12418 
L 715.778647 307.828609 
C 716.785668 307.427375 717.803372 307.05349 718.830639 306.707363 
C 719.857905 306.361237 720.894358 306.042997 721.938858 305.752993 
z
" clip-path="url(#p9acf428a92)" style="fill: #1f77b4; stroke: #ffffff; stroke-width: 2; stroke-linejoin: miter"/>
   </g>
   <g id="patch_3">
    <path d="M 727.849505 338.12418 
C 727.389508 338.307459 726.934559 338.503164 726.485159 338.711079 
C 726.035759 338.918993 725.592072 339.139042 725.154587 339.370981 
L 709.878961 310.558095 
C 710.836699 310.050335 711.808012 309.568607 712.791834 309.113443 
C 713.775656 308.658278 714.771626 308.229843 715.778647 307.828609 
z
" clip-path="url(#p9acf428a92)" style="fill: #1f77b4; stroke: #ffffff; stroke-width: 2; stroke-linejoin: miter"/>
   </g>
   <g id="patch_4">
    <path d="M 725.154587 339.370981 
C 724.717103 339.602921 724.28598 339.846667 723.861694 340.101952 
C 723.437407 340.357237 723.020113 340.623966 722.61027 340.901846 
L 704.308969 313.909448 
C 705.206194 313.301114 706.11973 312.717194 707.048573 312.158327 
C 707.977415 311.599461 708.921224 311.065855 709.878961 310.558095 
z
" clip-path="url(#p9acf428a92)" style="fill: #1f77b4; stroke: #ffffff; stroke-width: 2; stroke-linejoin: miter"/>
   </g>
   <g id="patch_5">
    <path d="M 722.61027 340.901846 
C 722.200427 341.179727 721.798185 341.468657 721.403987 341.768318 
C 721.009789 342.06798 720.62378 342.378263 720.246383 342.698826 
L 691.456734 308.805032 
C 692.446125 307.964635 693.458096 307.151191 694.491534 306.365591 
C 695.524972 305.579992 696.579497 304.822527 697.653951 304.09403 
z
" clip-path="url(#p9acf428a92)" style="fill: #1f77b4; stroke: #ffffff; stroke-width: 2; stroke-linejoin: miter"/>
   </g>
   <g id="patch_6">
    <path d="M 720.246383 342.698826 
C 719.868987 343.01939 719.500342 343.350116 719.140854 343.690641 
C 718.781366 344.031166 718.431166 344.381366 718.090641 344.740854 
L 685.805195 314.158454 
C 686.697923 313.216013 687.616013 312.297923 688.558454 311.405195 
C 689.500896 310.512467 690.467344 309.645428 691.456734 308.805032 
z
" clip-path="url(#p9acf428a92)" style="fill: #1f77b4; stroke: #ffffff; stroke-width: 2; stroke-linejoin: miter"/>
   </g>
   <g id="patch_7">
    <path d="M 718.090641 344.740854 
C 717.750116 345.100342 717.41939 345.468987 717.098826 345.846383 
C 716.778263 346.22378 716.46798 346.609789 716.168318 347.003987 
L 699.647046 334.444842 
C 700.173478 333.752332 700.71857 333.074207 701.281722 332.411214 
C 701.844874 331.74822 702.42588 331.1006 703.0241 330.469067 
z
" clip-path="url(#p9acf428a92)" style="fill: #1f77b4; stroke: #ffffff; stroke-width: 2; stroke-linejoin: miter"/>
   </g>
   <g id="patch_8">
    <path d="M 716.168318 347.003987 
C 715.868657 347.398185 715.579727 347.800427 715.301846 348.21027 
C 715.023966 348.620113 714.757237 349.037407 714.501952 349.461694 
L 694.179316 337.233969 
C 694.655387 336.442733 695.152801 335.664535 695.671011 334.900233 
C 696.189221 334.135931 696.728036 333.385805 697.286864 332.650679 
z
" clip-path="url(#p9acf428a92)" style="fill: #1f77b4; stroke: #ffffff; stroke-width: 2; stroke-linejoin: miter"/>
   </g>
   <g id="patch_9">
    <path d="M 714.501952 349.461694 
C 714.246667 349.88598 714.002921 350.317103 713.770981 350.754587 
C 713.539042 351.192072 713.318993 351.635759 713.111079 352.085159 
L 691.585525 342.126377 
C 691.973258 341.288307 692.383618 340.460891 692.816155 339.645041 
C 693.248691 338.829191 693.703245 338.025206 694.179316 337.233969 
z
" clip-path="url(#p9acf428a92)" style="fill: #1f77b4; stroke: #ffffff; stroke-width: 2; stroke-linejoin: miter"/>
   </g>
   <g id="patch_10">
    <path d="M 713.111079 352.085159 
C 712.903164 352.534559 712.707459 352.989508 712.52418 353.449505 
C 712.3409 353.909503 712.170113 354.37438 712.012005 354.843625 
L 689.535902 347.270544 
C 689.83075 346.395465 690.149246 345.528532 690.491038 344.670699 
C 690.83283 343.812866 691.197793 342.964448 691.585525 342.126377 
z
" clip-path="url(#p9acf428a92)" style="fill: #1f77b4; stroke: #ffffff; stroke-width: 2; stroke-linejoin: miter"/>
   </g>
   <g id="patch_11">
    <path d="M 712.012005 354.843625 
C 711.853898 355.31287 711.708529 355.786312 711.576058 356.263429 
C 711.443588 356.740546 711.324063 357.221163 711.217617 357.704752 
L 688.054476 352.606159 
C 688.252983 351.704331 688.47588 350.808045 688.72292 349.918286 
C 688.96996 349.028528 689.241053 348.145623 689.535902 347.270544 
z
" clip-path="url(#p9acf428a92)" style="fill: #1f77b4; stroke: #ffffff; stroke-width: 2; stroke-linejoin: miter"/>
   </g>
   <g id="patch_12">
    <path d="M 711.217617 357.704752 
C 711.111171 358.188341 711.017843 358.674724 710.937734 359.163367 
C 710.857625 359.652009 710.790765 360.142732 710.737228 360.634995 
L 687.158615 358.070666 
C 687.258454 357.152662 687.383138 356.237531 687.532531 355.326278 
C 687.681923 354.415026 687.855968 353.507987 688.054476 352.606159 
z
" clip-path="url(#p9acf428a92)" style="fill: #1f77b4; stroke: #ffffff; stroke-width: 2; stroke-linejoin: miter"/>
   </g>
   <g id="patch_13">
    <path d="M 710.737228 360.634995 
C 710.683692 361.127258 710.643497 361.620881 710.61669 362.11532 
C 710.589882 362.60976 710.576471 363.104834 710.576471 363.6 
L 677.964706 363.6 
C 677.964706 362.515989 677.994066 361.432176 678.052753 360.349755 
C 678.11144 359.267333 678.199433 358.1867 678.316635 357.109043 
z
" clip-path="url(#p9acf428a92)" style="fill: #1f77b4; stroke: #ffffff; stroke-width: 2; stroke-linejoin: miter"/>
   </g>
   <g id="patch_14">
    <path d="M 712.012005 372.356375 
C 712.170113 372.82562 712.3409 373.290497 712.52418 373.750495 
C 712.707459 374.210492 712.903164 374.665441 713.111079 375.114841 
L 648.534418 404.991186 
C 647.787049 403.375774 647.08357 401.740417 646.424754 400.086913 
C 645.765937 398.433409 645.152026 396.762365 644.583695 395.075618 
z
" clip-path="url(#p9acf428a92)" style="fill: #ff7f0e; stroke: #ffffff; stroke-width: 2; stroke-linejoin: miter"/>
   </g>
   <g id="patch_15">
    <path d="M 713.111079 375.114841 
C 713.318993 375.564241 713.539042 376.007928 713.770981 376.445413 
C 714.002921 376.882897 714.246667 377.31402 714.501952 377.738306 
L 653.534044 414.42148 
C 652.616399 412.896343 651.74023 411.346631 650.906501 409.774051 
C 650.072771 408.20147 649.281787 406.606597 648.534418 404.991186 
z
" clip-path="url(#p9acf428a92)" style="fill: #ff7f0e; stroke: #ffffff; stroke-width: 2; stroke-linejoin: miter"/>
   </g>
   <g id="patch_16">
    <path d="M 714.501952 377.738306 
C 714.757237 378.162593 715.023966 378.579887 715.301846 378.98973 
C 715.579727 379.399573 715.868657 379.801815 716.168318 380.196013 
L 659.523955 423.255938 
C 658.446794 421.838956 657.408208 420.39306 656.40934 418.91984 
C 655.410472 417.44662 654.451688 415.946617 653.534044 414.42148 
z
" clip-path="url(#p9acf428a92)" style="fill: #ff7f0e; stroke: #ffffff; stroke-width: 2; stroke-linejoin: miter"/>
   </g>
   <g id="patch_17">
    <path d="M 716.168318 380.196013 
C 716.46798 380.590211 716.778263 380.97622 717.098826 381.353617 
C 717.41939 381.731013 717.750116 382.099658 718.090641 382.459146 
L 666.433927 431.390985 
C 665.209877 430.098772 664.02105 428.773642 662.868755 427.417055 
C 661.716459 426.060468 660.601117 424.67292 659.523955 423.255938 
z
" clip-path="url(#p9acf428a92)" style="fill: #ff7f0e; stroke: #ffffff; stroke-width: 2; stroke-linejoin: miter"/>
   </g>
   <g id="patch_18">
    <path d="M 718.090641 382.459146 
C 718.431166 382.818634 718.781366 383.168834 719.140854 383.509359 
C 719.500342 383.849884 719.868987 384.18061 720.246383 384.501174 
L 676.102255 436.471659 
C 674.786467 435.354019 673.501191 434.200946 672.247841 433.01371 
C 670.994491 431.826474 669.773526 430.605509 668.58629 429.352159 
z
" clip-path="url(#p9acf428a92)" style="fill: #ff7f0e; stroke: #ffffff; stroke-width: 2; stroke-linejoin: miter"/>
   </g>
   <g id="patch_19">
    <path d="M 720.246383 384.501174 
C 720.62378 384.821737 721.009789 385.13202 721.403987 385.431682 
C 721.798185 385.731343 722.200427 386.020273 722.61027 386.298154 
L 679.352651 450.098369 
C 677.790816 449.039419 676.257948 447.938362 674.755735 446.796408 
C 673.253521 445.654455 671.782512 444.472025 670.344325 443.250418 
z
" clip-path="url(#p9acf428a92)" style="fill: #ff7f0e; stroke: #ffffff; stroke-width: 2; stroke-linejoin: miter"/>
   </g>
   <g id="patch_20">
    <path d="M 722.61027 386.298154 
C 723.020113 386.576034 723.437407 386.842763 723.861694 387.098048 
C 724.28598 387.353333 724.717103 387.597079 725.154587 387.829019 
L 689.048563 455.932206 
C 687.381391 455.048327 685.738464 454.119456 684.121589 453.146615 
C 682.504715 452.173774 680.914485 451.157319 679.352651 450.098369 
z
" clip-path="url(#p9acf428a92)" style="fill: #ff7f0e; stroke: #ffffff; stroke-width: 2; stroke-linejoin: miter"/>
   </g>
   <g id="patch_21">
    <path d="M 725.154587 387.829019 
C 725.592072 388.060958 726.035759 388.281007 726.485159 388.488921 
C 726.934559 388.696836 727.389508 388.892541 727.849505 389.07582 
L 700.415736 457.929389 
C 698.712503 457.250759 697.027962 456.526122 695.363967 455.756276 
C 693.699971 454.98643 692.057132 454.171656 690.437256 453.312852 
z
" clip-path="url(#p9acf428a92)" style="fill: #ff7f0e; stroke: #ffffff; stroke-width: 2; stroke-linejoin: miter"/>
   </g>
   <g id="patch_22">
    <path d="M 727.849505 389.07582 
C 728.309503 389.2591 728.77438 389.429887 729.243625 389.587995 
C 729.71287 389.746102 730.186312 389.891471 730.663429 390.023942 
L 700.524001 498.57635 
C 698.086836 497.899675 695.668446 497.157114 693.27149 496.349486 
C 690.874535 495.541858 688.499893 494.669457 686.150176 493.733245 
z
" clip-path="url(#p9acf428a92)" style="fill: #ff7f0e; stroke: #ffffff; stroke-width: 2; stroke-linejoin: miter"/>
   </g>
   <g id="patch_23">
    <path d="M 730.663429 390.023942 
C 731.140546 390.156412 731.621163 390.275937 732.104752 390.382383 
C 732.588341 390.488829 733.074724 390.582157 733.563367 390.662266 
L 731.165186 405.290518 
C 730.412413 405.167107 729.66312 405.02333 728.918131 404.859346 
C 728.173143 404.695362 727.432732 404.51123 726.697715 404.307153 
z
" clip-path="url(#p9acf428a92)" style="fill: #ff7f0e; stroke: #ffffff; stroke-width: 2; stroke-linejoin: miter"/>
   </g>
   <g id="patch_24">
    <path d="M 742.436633 390.662266 
C 742.925276 390.582157 743.411659 390.488829 743.895248 390.382383 
C 744.378837 390.275937 744.859454 390.156412 745.336571 390.023942 
L 754.061142 421.447007 
C 753.016643 421.737011 751.964481 421.998672 750.905814 422.231702 
C 749.847146 422.464733 748.782361 422.669047 747.71263 422.844421 
z
" clip-path="url(#p9acf428a92)" style="fill: #2ca02c; stroke: #ffffff; stroke-width: 2; stroke-linejoin: miter"/>
   </g>
   <g id="patch_25">
    <path d="M 745.336571 390.023942 
C 745.813688 389.891471 746.28713 389.746102 746.756375 389.587995 
C 747.22562 389.429887 747.690497 389.2591 748.150495 389.07582 
L 756.929301 411.108962 
C 756.071468 411.450754 755.204535 411.76925 754.329456 412.064098 
C 753.454377 412.358947 752.571472 412.63004 751.681714 412.87708 
z
" clip-path="url(#p9acf428a92)" style="fill: #2ca02c; stroke: #ffffff; stroke-width: 2; stroke-linejoin: miter"/>
   </g>
   <g id="patch_26">
    <path d="M 748.150495 389.07582 
C 748.610492 388.892541 749.065441 388.696836 749.514841 388.488921 
C 749.964241 388.281007 750.407928 388.060958 750.845413 387.829019 
L 770.287118 424.499966 
C 769.187494 425.082949 768.072282 425.636043 766.942709 426.15864 
C 765.813135 426.681236 764.669615 427.173143 763.513405 427.633819 
z
" clip-path="url(#p9acf428a92)" style="fill: #2ca02c; stroke: #ffffff; stroke-width: 2; stroke-linejoin: miter"/>
   </g>
   <g id="patch_27">
    <path d="M 750.845413 387.829019 
C 751.282897 387.597079 751.71402 387.353333 752.138306 387.098048 
C 752.562593 386.842763 752.979887 386.576034 753.38973 386.298154 
L 793.31984 445.19066 
C 791.84662 446.189528 790.346617 447.148312 788.82148 448.065956 
C 787.296343 448.983601 785.746631 449.85977 784.174051 450.693499 
z
" clip-path="url(#p9acf428a92)" style="fill: #2ca02c; stroke: #ffffff; stroke-width: 2; stroke-linejoin: miter"/>
   </g>
   <g id="patch_28">
    <path d="M 753.38973 386.298154 
C 753.799573 386.020273 754.201815 385.731343 754.596013 385.431682 
C 754.990211 385.13202 755.37622 384.821737 755.753617 384.501174 
L 780.704646 413.875796 
C 779.796854 414.646881 778.868345 415.393238 777.920139 416.114045 
C 776.971933 416.834852 776.004379 417.529846 775.01854 418.198261 
z
" clip-path="url(#p9acf428a92)" style="fill: #2ca02c; stroke: #ffffff; stroke-width: 2; stroke-linejoin: miter"/>
   </g>
   <g id="patch_29">
    <path d="M 755.753617 384.501174 
C 756.131013 384.18061 756.499658 383.849884 756.859146 383.509359 
C 757.218634 383.168834 757.568834 382.818634 757.909359 382.459146 
L 790.194805 413.041546 
C 789.302077 413.983987 788.383987 414.902077 787.441546 415.794805 
C 786.499104 416.687533 785.532656 417.554572 784.543266 418.394968 
z
" clip-path="url(#p9acf428a92)" style="fill: #2ca02c; stroke: #ffffff; stroke-width: 2; stroke-linejoin: miter"/>
   </g>
   <g id="patch_30">
    <path d="M 757.909359 382.459146 
C 758.249884 382.099658 758.58061 381.731013 758.901174 381.353617 
C 759.221737 380.97622 759.53202 380.590211 759.831682 380.196013 
L 788.153863 401.725976 
C 787.465452 402.631565 786.752639 403.518344 786.016209 404.385336 
C 785.27978 405.252328 784.520004 406.099215 783.737716 406.925066 
z
" clip-path="url(#p9acf428a92)" style="fill: #2ca02c; stroke: #ffffff; stroke-width: 2; stroke-linejoin: miter"/>
   </g>
   <g id="patch_31">
    <path d="M 759.831682 380.196013 
C 760.131343 379.801815 760.420273 379.399573 760.698154 378.98973 
C 760.976034 378.579887 761.242763 378.162593 761.498048 377.738306 
L 781.820684 389.966031 
C 781.344613 390.757267 780.847199 391.535465 780.328989 392.299767 
C 779.810779 393.064069 779.271964 393.814195 778.713136 394.549321 
z
" clip-path="url(#p9acf428a92)" style="fill: #2ca02c; stroke: #ffffff; stroke-width: 2; stroke-linejoin: miter"/>
   </g>
   <g id="patch_32">
    <path d="M 761.498048 377.738306 
C 761.753333 377.31402 761.997079 376.882897 762.229019 376.445413 
C 762.460958 376.007928 762.681007 375.564241 762.888921 375.114841 
L 811.321417 397.5221 
C 810.708911 398.846008 810.060661 400.153085 809.377379 401.441891 
C 808.694097 402.730698 807.976034 404.000762 807.223979 405.250686 
z
" clip-path="url(#p9acf428a92)" style="fill: #2ca02c; stroke: #ffffff; stroke-width: 2; stroke-linejoin: miter"/>
   </g>
   <g id="patch_33">
    <path d="M 762.888921 375.114841 
C 763.096836 374.665441 763.292541 374.210492 763.47582 373.750495 
C 763.6591 373.290497 763.829887 372.82562 763.987995 372.356375 
L 806.130689 386.555902 
C 805.716191 387.786085 805.268452 389.004817 804.787962 390.210756 
C 804.307472 391.416695 803.794408 392.609399 803.249334 393.787556 
z
" clip-path="url(#p9acf428a92)" style="fill: #2ca02c; stroke: #ffffff; stroke-width: 2; stroke-linejoin: miter"/>
   </g>
   <g id="patch_34">
    <path d="M 765.423529 363.6 
C 765.423529 363.104834 765.410118 362.60976 765.38331 362.11532 
C 765.356503 361.620881 765.316308 361.127258 765.262772 360.634995 
L 779.999405 359.032289 
C 780.08188 359.790641 780.143801 360.551086 780.1851 361.31279 
C 780.226398 362.074494 780.247059 362.837177 780.247059 363.6 
z
" clip-path="url(#p9acf428a92)" style="fill: #d62728; stroke: #ffffff; stroke-width: 2; stroke-linejoin: miter"/>
   </g>
   <g id="patch_35">
    <path d="M 765.262772 360.634995 
C 765.209235 360.142732 765.142375 359.652009 765.062266 359.163367 
C 764.982157 358.674724 764.888829 358.188341 764.782383 357.704752 
L 811.108666 347.507566 
C 811.399235 348.827633 811.653997 350.155328 811.872673 351.48919 
C 812.091348 352.823052 812.273857 354.162593 812.419998 355.506337 
z
" clip-path="url(#p9acf428a92)" style="fill: #d62728; stroke: #ffffff; stroke-width: 2; stroke-linejoin: miter"/>
   </g>
   <g id="patch_36">
    <path d="M 764.782383 357.704752 
C 764.675937 357.221163 764.556412 356.740546 764.423942 356.263429 
C 764.291471 355.786312 764.146102 355.31287 763.987995 354.843625 
L 778.035559 350.110449 
C 778.27913 350.833341 778.503077 351.562697 778.707153 352.297715 
C 778.91123 353.032732 779.095362 353.773143 779.259346 354.518131 
z
" clip-path="url(#p9acf428a92)" style="fill: #d62728; stroke: #ffffff; stroke-width: 2; stroke-linejoin: miter"/>
   </g>
   <g id="patch_37">
    <path d="M 759.831682 347.003987 
C 759.53202 346.609789 759.221737 346.22378 758.901174 345.846383 
C 758.58061 345.468987 758.249884 345.100342 757.909359 344.740854 
L 775.128264 328.430241 
C 775.763297 329.100637 776.380057 329.78811 776.977864 330.491904 
C 777.575672 331.195697 778.154308 331.915553 778.713136 332.650679 
z
" clip-path="url(#p9acf428a92)" style="fill: #9467bd; stroke: #ffffff; stroke-width: 2; stroke-linejoin: miter"/>
   </g>
   <g id="patch_38">
    <path d="M 750.845413 339.370981 
C 750.407928 339.139042 749.964241 338.918993 749.514841 338.711079 
C 749.065441 338.503164 748.610492 338.307459 748.150495 338.12418 
L 753.637248 324.353466 
C 754.345893 324.635816 755.04676 324.937307 755.73908 325.257608 
C 756.431399 325.577909 757.114916 325.916902 757.788879 326.274215 
z
" clip-path="url(#p9acf428a92)" style="fill: #8c564b; stroke: #ffffff; stroke-width: 2; stroke-linejoin: miter"/>
   </g>
   <g id="patch_39">
    <path d="M 748.150495 338.12418 
C 747.690497 337.9409 747.22562 337.770113 746.756375 337.612005 
C 746.28713 337.453898 745.813688 337.308529 745.336571 337.176058 
L 747.716 328.606131 
C 748.347857 328.781566 748.974847 328.974081 749.59628 329.183467 
C 750.217713 329.392852 750.833361 329.61903 751.442547 329.861751 
z
" clip-path="url(#p9acf428a92)" style="fill: #8c564b; stroke: #ffffff; stroke-width: 2; stroke-linejoin: miter"/>
   </g>
   <g id="patch_40">
    <path d="M 745.336571 337.176058 
C 744.859454 337.043588 744.378837 336.924063 743.895248 336.817617 
C 743.411659 336.711171 742.925276 336.617843 742.436633 336.537734 
L 744.355177 324.835132 
C 745.055125 324.949883 745.751836 325.08357 746.444545 325.236047 
C 747.137253 325.388523 747.825705 325.559734 748.509143 325.749489 
z
" clip-path="url(#p9acf428a92)" style="fill: #8c564b; stroke: #ffffff; stroke-width: 2; stroke-linejoin: miter"/>
   </g>
   <g id="patch_41">
    <path d="M 742.436633 336.537734 
C 741.947991 336.457625 741.457268 336.390765 740.965005 336.337228 
C 740.472742 336.283692 739.979119 336.243497 739.48468 336.21669 
L 739.966198 327.335616 
C 740.620996 327.371118 741.274713 327.424348 741.926628 327.495249 
C 742.578544 327.566149 743.22842 327.654692 743.875541 327.760783 
z
" clip-path="url(#p9acf428a92)" style="fill: #8c564b; stroke: #ffffff; stroke-width: 2; stroke-linejoin: miter"/>
   </g>
   <g id="matplotlib.axis_1"/>
   <g id="matplotlib.axis_2"/>
   <g id="line2d_1">
    <path d="M 733.976801 351.65957 
L 733.687638 351.760932 
L 733.401025 351.869295 
L 733.117132 351.984596 
L 732.836127 352.106766 
L 732.558176 352.235734 
L 732.283443 352.371421 
L 732.012091 352.51375 
L 731.74428 352.662635 
L 731.480168 352.817987 
L 731.219913 352.979717 
L 730.963667 353.147727 
L 730.711582 353.321918 
L 730.463807 353.502188 
L 730.22049 353.68843 
L 729.981773 353.880533 
L 729.747798 354.078385 
L 729.518703 354.281867 
L 729.294624 354.49086 
L 729.075694 354.70524 
L 728.862041 354.92488 
L 728.653792 355.149651 
L 728.451071 355.379419 
L 728.253996 355.614049 
L 728.062686 355.853402 
L 727.877252 356.097336 
L 727.697805 356.345706 
L 727.52445 356.598368 
L 727.357291 356.855169 
L 727.196425 357.11596 
L 727.041949 357.380585 
L 726.893953 357.648888 
L 726.752526 357.920711 
L 726.61775 358.195893 
L 726.489705 358.47427 
L 726.368467 358.755679 
L 726.254109 359.039952 
L 726.146696 359.326923 
L 726.046294 359.61642 
L 725.952961 359.908274 
L 725.866752 360.20231 
L 725.787719 360.498356 
L 725.715908 360.796236 
L 725.651362 361.095775 
L 725.594119 361.396794 
L 725.544213 361.699116 
L 725.501672 362.002563 
L 725.466524 362.306954 
L 725.438787 362.61211 
L 725.418479 362.91785 
" clip-path="url(#p9acf428a92)" style="fill: none; stroke: #333333; stroke-width: 1.5; stroke-linecap: square"/>
   </g>
   <g id="line2d_2">
    <path d="M 738 276.882353 
L 737.616565 276.883201 
L 737.233137 276.885744 
L 736.849725 276.889982 
L 736.466335 276.895916 
L 736.082974 276.903545 
L 735.699652 276.912869 
L 735.316374 276.923888 
L 734.933149 276.936601 
L 734.549984 276.951009 
L 734.166886 276.96711 
L 733.783863 276.984906 
L 733.400923 277.004395 
L 733.018072 277.025577 
L 732.635319 277.048452 
L 732.252671 277.073019 
L 731.870135 277.099277 
L 731.487719 277.127227 
L 731.10543 277.156867 
L 730.723276 277.188198 
L 730.341265 277.221217 
L 729.959403 277.255926 
L 729.577698 277.292323 
L 729.196158 277.330407 
L 728.81479 277.370178 
L 728.433602 277.411635 
L 728.052601 277.454776 
L 727.671794 277.499602 
L 727.291189 277.546112 
L 726.910793 277.594304 
L 726.530615 277.644177 
L 726.15066 277.695731 
L 725.770937 277.748964 
L 725.391454 277.803876 
L 725.012217 277.860465 
L 724.633233 277.918731 
L 724.254511 277.978672 
L 723.876058 278.040286 
L 723.497881 278.103574 
L 723.119988 278.168533 
L 722.742385 278.235162 
L 722.365081 278.303461 
L 721.988082 278.373427 
L 721.611397 278.445059 
L 721.235031 278.518356 
L 720.858994 278.593317 
L 720.483292 278.669939 
L 720.107932 278.748222 
L 719.732922 278.828164 
L 719.358269 278.909763 
" clip-path="url(#p9acf428a92)" style="fill: none; stroke: #bebebe; stroke-width: 0.8; stroke-linecap: square"/>
   </g>
   <g id="line2d_3">
    <path d="M 738 217.588235 
L 737.354387 217.589663 
L 736.708787 217.593945 
L 736.063212 217.601081 
L 735.417674 217.611072 
L 734.772188 217.623918 
L 734.126764 217.639617 
L 733.481416 217.65817 
L 732.836157 217.679576 
L 732.190998 217.703835 
L 731.545953 217.730947 
L 730.901034 217.76091 
L 730.256254 217.793725 
L 729.611626 217.82939 
L 728.967161 217.867906 
L 728.322873 217.909271 
L 727.678774 217.953484 
L 727.034877 218.000544 
L 726.391194 218.050452 
L 725.747739 218.103204 
L 725.104523 218.158802 
L 724.461559 218.217243 
L 723.818859 218.278526 
L 723.176437 218.342651 
L 722.534305 218.409616 
L 721.892475 218.479419 
L 721.25096 218.552059 
L 720.609772 218.627536 
L 719.968925 218.705846 
L 719.32843 218.78699 
L 718.6883 218.870965 
L 718.048548 218.957769 
L 717.409185 219.047401 
L 716.770226 219.13986 
L 716.131681 219.235143 
L 715.493564 219.333248 
L 714.855887 219.434174 
L 714.218662 219.537918 
L 713.581902 219.644479 
L 712.94562 219.753855 
L 712.309828 219.866043 
L 711.674538 219.981041 
L 711.039762 220.098847 
L 710.405514 220.219458 
L 709.771805 220.342873 
L 709.138648 220.469089 
L 708.506055 220.598103 
L 707.874039 220.729912 
L 707.242612 220.864515 
L 706.611787 221.001909 
" clip-path="url(#p9acf428a92)" style="fill: none; stroke: #bebebe; stroke-width: 0.8; stroke-linecap: square"/>
   </g>
   <g id="line2d_4">
    <path d="M 738 158.294118 
L 737.092209 158.296125 
L 736.184436 158.302146 
L 735.276699 158.31218 
L 734.369014 158.326228 
L 733.461401 158.34429 
L 732.553876 158.366365 
L 731.646458 158.392452 
L 730.739165 158.422551 
L 729.832013 158.456662 
L 728.92502 158.494783 
L 728.018206 158.536914 
L 727.111586 158.583055 
L 726.205179 158.633204 
L 725.299003 158.68736 
L 724.393075 158.745523 
L 723.487413 158.80769 
L 722.582035 158.873862 
L 721.676959 158.944036 
L 720.772201 159.018211 
L 719.86778 159.096386 
L 718.963714 159.17856 
L 718.06002 159.26473 
L 717.156716 159.354895 
L 716.25382 159.449053 
L 715.351348 159.547203 
L 714.449319 159.649342 
L 713.547751 159.755469 
L 712.646661 159.865581 
L 711.746066 159.979676 
L 710.845985 160.097752 
L 709.946435 160.219807 
L 709.047433 160.345838 
L 708.148997 160.475843 
L 707.251145 160.60982 
L 706.353894 160.747765 
L 705.457262 160.889676 
L 704.561266 161.03555 
L 703.665924 161.185385 
L 702.771253 161.339177 
L 701.877271 161.496923 
L 700.983995 161.658621 
L 700.091442 161.824267 
L 699.199631 161.993857 
L 698.308579 162.16739 
L 697.418302 162.344861 
L 696.528819 162.526266 
L 695.640147 162.711603 
L 694.752303 162.900867 
L 693.865304 163.094055 
" clip-path="url(#p9acf428a92)" style="fill: none; stroke: #bebebe; stroke-width: 0.8; stroke-linecap: square"/>
   </g>
   <g id="line2d_5">
    <path d="M 738 99 
L 736.830031 99.002587 
L 735.660086 99.010346 
L 734.490186 99.023279 
L 733.320354 99.041385 
L 732.150614 99.064663 
L 730.980989 99.093113 
L 729.811501 99.126734 
L 728.642172 99.165526 
L 727.473027 99.209488 
L 726.304088 99.258619 
L 725.135377 99.312918 
L 723.966918 99.372385 
L 722.798733 99.437017 
L 721.630845 99.506814 
L 720.463277 99.581775 
L 719.296053 99.661897 
L 718.129194 99.747179 
L 716.962723 99.83762 
L 715.796664 99.933218 
L 714.631038 100.033971 
L 713.46587 100.139877 
L 712.301181 100.250934 
L 711.136995 100.367139 
L 709.973334 100.488491 
L 708.810221 100.614987 
L 707.647679 100.746625 
L 706.48573 100.883402 
L 705.324397 101.025315 
L 704.163703 101.172362 
L 703.003671 101.32454 
L 701.844322 101.481845 
L 700.685681 101.644275 
L 699.527769 101.811827 
L 698.37061 101.984497 
L 697.214225 102.162282 
L 696.058637 102.345178 
L 694.90387 102.533182 
L 693.749945 102.72629 
L 692.596885 102.924498 
L 691.444713 103.127803 
L 690.293452 103.336201 
L 689.143122 103.549687 
L 687.993749 103.768257 
L 686.845352 103.991907 
L 685.697956 104.220633 
L 684.551583 104.45443 
L 683.406254 104.693293 
L 682.261993 104.937218 
L 681.118822 105.186201 
" clip-path="url(#p9acf428a92)" style="fill: none; stroke: #bebebe; stroke-width: 0.8; stroke-linecap: square"/>
   </g>
   <g id="line2d_6">
    <path d="M 726.294893 368.263741 
L 726.390001 368.495704 
L 726.489705 368.72573 
L 726.593966 368.953726 
L 726.702742 369.179603 
L 726.815991 369.403271 
L 726.933668 369.624641 
L 727.055726 369.843626 
L 727.182117 370.060139 
L 727.31279 370.274095 
L 727.447695 370.485409 
L 727.586777 370.693996 
L 727.729981 370.899775 
L 727.877252 371.102664 
L 728.02853 371.302583 
L 728.183756 371.499453 
L 728.342868 371.693195 
L 728.505803 371.883733 
L 728.672497 372.070991 
L 728.842884 372.254896 
L 729.016896 372.435374 
L 729.194464 372.612355 
L 729.375519 372.785767 
L 729.559988 372.955543 
L 729.747798 373.121615 
L 729.938875 373.283918 
L 730.133144 373.442387 
L 730.330527 373.596959 
L 730.530946 373.747573 
L 730.734323 373.89417 
L 730.940576 374.036691 
L 731.149623 374.175081 
L 731.361383 374.309284 
L 731.575771 374.439247 
L 731.792702 374.564919 
L 732.012091 374.68625 
L 732.23385 374.803192 
L 732.457892 374.915699 
L 732.684128 375.023726 
L 732.912469 375.12723 
L 733.142824 375.226171 
L 733.375102 375.320508 
L 733.609211 375.410206 
L 733.845058 375.495228 
L 734.08255 375.575541 
L 734.321593 375.651113 
L 734.562092 375.721914 
L 734.803952 375.787915 
L 735.047078 375.849092 
L 735.291372 375.905419 
" clip-path="url(#p9acf428a92)" style="fill: none; stroke: #333333; stroke-width: 1.5; stroke-linecap: square"/>
   </g>
   <g id="line2d_7">
    <path d="M 651.409532 368.294799 
L 651.431137 368.677626 
L 651.454435 369.060353 
L 651.479425 369.442974 
L 651.506106 369.825481 
L 651.534478 370.207866 
L 651.564541 370.590121 
L 651.596294 370.97224 
L 651.629736 371.354215 
L 651.664867 371.736038 
L 651.701686 372.117703 
L 651.740192 372.4992 
L 651.780384 372.880524 
L 651.822262 373.261666 
L 651.865825 373.64262 
L 651.911072 374.023377 
L 651.958002 374.40393 
L 652.006614 374.784272 
L 652.056908 375.164395 
L 652.108882 375.544292 
L 652.162535 375.923956 
L 652.217866 376.303379 
L 652.274875 376.682553 
L 652.333559 377.061472 
L 652.393919 377.440127 
L 652.455952 377.818512 
L 652.519657 378.196619 
L 652.585034 378.574441 
L 652.652081 378.951969 
L 652.720796 379.329198 
L 652.791179 379.706119 
L 652.863227 380.082725 
L 652.93694 380.459009 
L 653.012316 380.834963 
L 653.089354 381.210581 
L 653.168052 381.585854 
L 653.248409 381.960775 
L 653.330422 382.335337 
L 653.414091 382.709533 
L 653.499413 383.083356 
L 653.586388 383.456797 
L 653.675013 383.829851 
L 653.765287 384.202509 
L 653.857207 384.574764 
L 653.950773 384.946609 
L 654.045982 385.318036 
L 654.142832 385.689039 
L 654.241322 386.05961 
L 654.341449 386.429742 
L 654.443212 386.799428 
" clip-path="url(#p9acf428a92)" style="fill: none; stroke: #bebebe; stroke-width: 0.8; stroke-linecap: square"/>
   </g>
   <g id="line2d_8">
    <path d="M 592.202374 371.504918 
L 592.238752 372.149506 
L 592.27798 372.793928 
L 592.320057 373.43817 
L 592.364982 374.08222 
L 592.412754 374.726064 
L 592.463373 375.369691 
L 592.516837 376.013088 
L 592.573146 376.656243 
L 592.632297 377.299142 
L 592.694291 377.941773 
L 592.759126 378.584124 
L 592.8268 379.226181 
L 592.897313 379.867934 
L 592.970663 380.509368 
L 593.046848 381.150472 
L 593.125867 381.791232 
L 593.207718 382.431637 
L 593.292401 383.071674 
L 593.379912 383.71133 
L 593.470251 384.350593 
L 593.563416 384.98945 
L 593.659404 385.627889 
L 593.758215 386.265897 
L 593.859846 386.903462 
L 593.964295 387.540572 
L 594.071559 388.177213 
L 594.181638 388.813374 
L 594.294529 389.449042 
L 594.410229 390.084205 
L 594.528737 390.71885 
L 594.650049 391.352964 
L 594.774164 391.986536 
L 594.90108 392.619553 
L 595.030793 393.252003 
L 595.163301 393.883873 
L 595.298602 394.515151 
L 595.436693 395.145824 
L 595.577572 395.775881 
L 595.721234 396.405309 
L 595.867679 397.034095 
L 596.016902 397.662227 
L 596.168901 398.289694 
L 596.323673 398.916482 
L 596.481216 399.54258 
L 596.641524 400.167976 
L 596.804597 400.792656 
L 596.97043 401.416609 
L 597.139021 402.039823 
L 597.310365 402.662285 
" clip-path="url(#p9acf428a92)" style="fill: none; stroke: #bebebe; stroke-width: 0.8; stroke-linecap: square"/>
   </g>
   <g id="line2d_9">
    <path d="M 532.995216 374.715036 
L 533.046367 375.621387 
L 533.101525 376.527503 
L 533.160689 377.433366 
L 533.223858 378.338958 
L 533.29103 379.244263 
L 533.362205 380.149261 
L 533.43738 381.053936 
L 533.516555 381.95827 
L 533.599728 382.862245 
L 533.686897 383.765843 
L 533.77806 384.669047 
L 533.873217 385.571839 
L 533.972364 386.474201 
L 534.0755 387.376117 
L 534.182623 388.277567 
L 534.293731 389.178535 
L 534.408822 390.079003 
L 534.527893 390.978953 
L 534.650942 391.878368 
L 534.777967 392.77723 
L 534.908965 393.675521 
L 535.043934 394.573225 
L 535.182871 395.470322 
L 535.325773 396.366797 
L 535.472637 397.262631 
L 535.623462 398.157808 
L 535.778243 399.052308 
L 535.936977 399.946115 
L 536.099662 400.839212 
L 536.266295 401.731581 
L 536.436871 402.623204 
L 536.611389 403.514064 
L 536.789843 404.404144 
L 536.972232 405.293426 
L 537.158551 406.181893 
L 537.348796 407.069527 
L 537.542965 407.956311 
L 537.741052 408.842229 
L 537.943055 409.727261 
L 538.14897 410.611392 
L 538.358791 411.494604 
L 538.572516 412.376879 
L 538.79014 413.258201 
L 539.011658 414.138552 
L 539.237067 415.017915 
L 539.466362 415.896272 
L 539.699539 416.773607 
L 539.936593 417.649903 
L 540.177519 418.525142 
" clip-path="url(#p9acf428a92)" style="fill: none; stroke: #bebebe; stroke-width: 0.8; stroke-linecap: square"/>
   </g>
   <g id="line2d_10">
    <path d="M 473.788059 377.925155 
L 473.853982 379.093268 
L 473.92507 380.261078 
L 474.001321 381.428562 
L 474.082734 382.595697 
L 474.169306 383.762461 
L 474.261036 384.928831 
L 474.357923 386.094784 
L 474.459964 387.260297 
L 474.567158 388.425348 
L 474.679502 389.589913 
L 474.796995 390.75397 
L 474.919633 391.917496 
L 475.047415 393.080469 
L 475.180338 394.242865 
L 475.318399 395.404662 
L 475.461596 396.565837 
L 475.609926 397.726368 
L 475.763386 398.886231 
L 475.921973 400.045405 
L 476.085683 401.203866 
L 476.254515 402.361592 
L 476.428464 403.51856 
L 476.607527 404.674748 
L 476.7917 405.830132 
L 476.98098 406.984691 
L 477.175364 408.138402 
L 477.374847 409.291242 
L 477.579425 410.443188 
L 477.789095 411.594219 
L 478.003853 412.744311 
L 478.223693 413.893443 
L 478.448613 415.041591 
L 478.678607 416.188734 
L 478.913671 417.334848 
L 479.1538 418.479912 
L 479.39899 419.623903 
L 479.649236 420.766798 
L 479.904533 421.908576 
L 480.164876 423.049214 
L 480.430261 424.18869 
L 480.70068 425.326981 
L 480.976131 426.464065 
L 481.256606 427.59992 
L 481.542101 428.734524 
L 481.83261 429.867854 
L 482.128128 430.999889 
L 482.428648 432.130606 
L 482.734165 433.259983 
L 483.044672 434.387998 
" clip-path="url(#p9acf428a92)" style="fill: none; stroke: #bebebe; stroke-width: 0.8; stroke-linecap: square"/>
   </g>
   <g id="line2d_11">
    <path d="M 740.708628 375.905419 
L 740.952922 375.849092 
L 741.196048 375.787915 
L 741.437908 375.721914 
L 741.678407 375.651113 
L 741.91745 375.575541 
L 742.154942 375.495228 
L 742.390789 375.410206 
L 742.624898 375.320508 
L 742.857176 375.226171 
L 743.087531 375.12723 
L 743.315872 375.023726 
L 743.542108 374.915699 
L 743.76615 374.803192 
L 743.987909 374.68625 
L 744.207298 374.564919 
L 744.424229 374.439247 
L 744.638617 374.309284 
L 744.850377 374.175081 
L 745.059424 374.036691 
L 745.265677 373.89417 
L 745.469054 373.747573 
L 745.669473 373.596959 
L 745.866856 373.442387 
L 746.061125 373.283918 
L 746.252202 373.121615 
L 746.440012 372.955543 
L 746.624481 372.785767 
L 746.805536 372.612355 
L 746.983104 372.435374 
L 747.157116 372.254896 
L 747.327503 372.070991 
L 747.494197 371.883733 
L 747.657132 371.693195 
L 747.816244 371.499453 
L 747.97147 371.302583 
L 748.122748 371.102664 
L 748.270019 370.899775 
L 748.413223 370.693996 
L 748.552305 370.485409 
L 748.68721 370.274095 
L 748.817883 370.060139 
L 748.944274 369.843626 
L 749.066332 369.624641 
L 749.184009 369.403271 
L 749.297258 369.179603 
L 749.406034 368.953726 
L 749.510295 368.72573 
L 749.609999 368.495704 
L 749.705107 368.263741 
" clip-path="url(#p9acf428a92)" style="fill: none; stroke: #333333; stroke-width: 1.5; stroke-linecap: square"/>
   </g>
   <g id="line2d_12">
    <path d="M 728.624173 449.809304 
L 729.005452 449.849918 
L 729.386907 449.888846 
L 729.76853 449.926087 
L 730.150315 449.961639 
L 730.532252 449.995504 
L 730.914336 450.027679 
L 731.296558 450.058164 
L 731.678911 450.086959 
L 732.061388 450.114064 
L 732.443981 450.139476 
L 732.826683 450.163197 
L 733.209486 450.185226 
L 733.592382 450.205561 
L 733.975365 450.224203 
L 734.358426 450.241152 
L 734.741558 450.256407 
L 735.124754 450.269968 
L 735.508007 450.281834 
L 735.891308 450.292005 
L 736.27465 450.300481 
L 736.658026 450.307263 
L 737.041429 450.312349 
L 737.42485 450.31574 
L 737.808282 450.317435 
L 738.191718 450.317435 
L 738.57515 450.31574 
L 738.958571 450.312349 
L 739.341974 450.307263 
L 739.72535 450.300481 
L 740.108692 450.292005 
L 740.491993 450.281834 
L 740.875246 450.269968 
L 741.258442 450.256407 
L 741.641574 450.241152 
L 742.024635 450.224203 
L 742.407618 450.205561 
L 742.790514 450.185226 
L 743.173317 450.163197 
L 743.556019 450.139476 
L 743.938612 450.114064 
L 744.321089 450.086959 
L 744.703442 450.058164 
L 745.085664 450.027679 
L 745.467748 449.995504 
L 745.849685 449.961639 
L 746.23147 449.926087 
L 746.613093 449.888846 
L 746.994548 449.849918 
L 747.375827 449.809304 
" clip-path="url(#p9acf428a92)" style="fill: none; stroke: #bebebe; stroke-width: 0.8; stroke-linecap: square"/>
   </g>
   <g id="line2d_13">
    <path d="M 722.213351 508.755837 
L 722.855334 508.824222 
L 723.497613 508.889766 
L 724.140175 508.952471 
L 724.783008 509.012333 
L 725.4261 509.069352 
L 726.069437 509.123528 
L 726.713008 509.174858 
L 727.3568 509.223342 
L 728.000799 509.268979 
L 728.644994 509.311768 
L 729.289372 509.351708 
L 729.93392 509.388799 
L 730.578626 509.423039 
L 731.223477 509.454428 
L 731.868461 509.482966 
L 732.513564 509.508651 
L 733.158775 509.531484 
L 733.80408 509.551463 
L 734.449467 509.56859 
L 735.094924 509.582862 
L 735.740438 509.59428 
L 736.385995 509.602844 
L 737.031585 509.608553 
L 737.677193 509.611408 
L 738.322807 509.611408 
L 738.968415 509.608553 
L 739.614005 509.602844 
L 740.259562 509.59428 
L 740.905076 509.582862 
L 741.550533 509.56859 
L 742.19592 509.551463 
L 742.841225 509.531484 
L 743.486436 509.508651 
L 744.131539 509.482966 
L 744.776523 509.454428 
L 745.421374 509.423039 
L 746.06608 509.388799 
L 746.710628 509.351708 
L 747.355006 509.311768 
L 747.999201 509.268979 
L 748.6432 509.223342 
L 749.286992 509.174858 
L 749.930563 509.123528 
L 750.5739 509.069352 
L 751.216992 509.012333 
L 751.859825 508.952471 
L 752.502387 508.889766 
L 753.144666 508.824222 
L 753.786649 508.755837 
" clip-path="url(#p9acf428a92)" style="fill: none; stroke: #bebebe; stroke-width: 0.8; stroke-linecap: square"/>
   </g>
   <g id="line2d_14">
    <path d="M 715.80253 567.70237 
L 716.705216 567.798525 
L 717.608318 567.890687 
L 718.51182 567.978854 
L 719.415702 568.063026 
L 720.319948 568.143201 
L 721.224539 568.219376 
L 722.129458 568.291551 
L 723.034688 568.359724 
L 723.94021 568.423894 
L 724.846007 568.484059 
L 725.752061 568.540219 
L 726.658355 568.592372 
L 727.56487 568.640516 
L 728.47159 568.684653 
L 729.378495 568.724779 
L 730.28557 568.760895 
L 731.192795 568.793 
L 732.100153 568.821093 
L 733.007627 568.845174 
L 733.915198 568.865242 
L 734.822849 568.881297 
L 735.730562 568.893339 
L 736.638319 568.901367 
L 737.546104 568.905381 
L 738.453896 568.905381 
L 739.361681 568.901367 
L 740.269438 568.893339 
L 741.177151 568.881297 
L 742.084802 568.865242 
L 742.992373 568.845174 
L 743.899847 568.821093 
L 744.807205 568.793 
L 745.71443 568.760895 
L 746.621505 568.724779 
L 747.52841 568.684653 
L 748.43513 568.640516 
L 749.341645 568.592372 
L 750.247939 568.540219 
L 751.153993 568.484059 
L 752.05979 568.423894 
L 752.965312 568.359724 
L 753.870542 568.291551 
L 754.775461 568.219376 
L 755.680052 568.143201 
L 756.584298 568.063026 
L 757.48818 567.978854 
L 758.391682 567.890687 
L 759.294784 567.798525 
L 760.19747 567.70237 
" clip-path="url(#p9acf428a92)" style="fill: none; stroke: #bebebe; stroke-width: 0.8; stroke-linecap: square"/>
   </g>
   <g id="line2d_15">
    <path d="M 709.391708 626.648903 
L 710.555098 626.772828 
L 711.719024 626.891607 
L 712.883464 627.005238 
L 714.048396 627.11372 
L 715.213795 627.21705 
L 716.37964 627.315225 
L 717.545908 627.408245 
L 718.712576 627.496107 
L 719.879621 627.578809 
L 721.04702 627.656351 
L 722.21475 627.72873 
L 723.382789 627.795945 
L 724.551114 627.857994 
L 725.719702 627.914877 
L 726.88853 627.966593 
L 728.057575 628.013139 
L 729.226815 628.054516 
L 730.396226 628.090723 
L 731.565786 628.121759 
L 732.735471 628.147623 
L 733.90526 628.168315 
L 735.075128 628.183834 
L 736.245054 628.19418 
L 737.415014 628.199353 
L 738.584986 628.199353 
L 739.754946 628.19418 
L 740.924872 628.183834 
L 742.09474 628.168315 
L 743.264529 628.147623 
L 744.434214 628.121759 
L 745.603774 628.090723 
L 746.773185 628.054516 
L 747.942425 628.013139 
L 749.11147 627.966593 
L 750.280298 627.914877 
L 751.448886 627.857994 
L 752.617211 627.795945 
L 753.78525 627.72873 
L 754.95298 627.656351 
L 756.120379 627.578809 
L 757.287424 627.496107 
L 758.454092 627.408245 
L 759.62036 627.315225 
L 760.786205 627.21705 
L 761.951604 627.11372 
L 763.116536 627.005238 
L 764.280976 626.891607 
L 765.444902 626.772828 
L 766.608292 626.648903 
" clip-path="url(#p9acf428a92)" style="fill: none; stroke: #bebebe; stroke-width: 0.8; stroke-linecap: square"/>
   </g>
   <g id="line2d_16">
    <path d="M 750.581521 362.91785 
L 750.578382 362.862225 
L 750.574997 362.806615 
L 750.571366 362.751021 
L 750.567489 362.695443 
L 750.563366 362.639883 
L 750.558998 362.584341 
L 750.554385 362.52882 
L 750.549526 362.473319 
L 750.544421 362.417841 
L 750.539071 362.362385 
L 750.533476 362.306954 
L 750.527637 362.251548 
L 750.521552 362.196168 
L 750.515222 362.140816 
L 750.508648 362.085492 
L 750.501829 362.030198 
L 750.494765 361.974935 
L 750.487458 361.919703 
L 750.479906 361.864505 
L 750.47211 361.80934 
L 750.464071 361.75421 
L 750.455787 361.699116 
L 750.447261 361.64406 
L 750.43849 361.589041 
L 750.429477 361.534062 
L 750.420221 361.479124 
L 750.410722 361.424227 
L 750.40098 361.369372 
L 750.390995 361.314561 
L 750.380769 361.259795 
L 750.3703 361.205074 
L 750.35959 361.1504 
L 750.348638 361.095775 
L 750.337444 361.041198 
L 750.32601 360.986671 
L 750.314334 360.932195 
L 750.302417 360.877772 
L 750.29026 360.823401 
L 750.277863 360.769085 
L 750.265226 360.714824 
L 750.252349 360.66062 
L 750.239232 360.606473 
L 750.225876 360.552385 
L 750.212281 360.498356 
L 750.198447 360.444388 
L 750.184375 360.390481 
L 750.170064 360.336638 
L 750.155516 360.282858 
L 750.14073 360.229143 
" clip-path="url(#p9acf428a92)" style="fill: none; stroke: #333333; stroke-width: 1.5; stroke-linecap: square"/>
   </g>
   <g id="line2d_17">
    <path d="M 821.556788 386.799428 
L 821.658551 386.429742 
L 821.758678 386.05961 
L 821.857168 385.689039 
L 821.954018 385.318036 
L 822.049227 384.946609 
L 822.142793 384.574764 
L 822.234713 384.202509 
L 822.324987 383.829851 
L 822.413612 383.456797 
L 822.500587 383.083356 
L 822.585909 382.709533 
L 822.669578 382.335337 
L 822.751591 381.960775 
L 822.831948 381.585854 
L 822.910646 381.210581 
L 822.987684 380.834963 
L 823.06306 380.459009 
L 823.136773 380.082725 
L 823.208821 379.706119 
L 823.279204 379.329198 
L 823.347919 378.951969 
L 823.414966 378.574441 
L 823.480343 378.196619 
L 823.544048 377.818512 
L 823.606081 377.440127 
L 823.666441 377.061472 
L 823.725125 376.682553 
L 823.782134 376.303379 
L 823.837465 375.923956 
L 823.891118 375.544292 
L 823.943092 375.164395 
L 823.993386 374.784272 
L 824.041998 374.40393 
L 824.088928 374.023377 
L 824.134175 373.64262 
L 824.177738 373.261666 
L 824.219616 372.880524 
L 824.259808 372.4992 
L 824.298314 372.117703 
L 824.335133 371.736038 
L 824.370264 371.354215 
L 824.403706 370.97224 
L 824.435459 370.590121 
L 824.465522 370.207866 
L 824.493894 369.825481 
L 824.520575 369.442974 
L 824.545565 369.060353 
L 824.568863 368.677626 
L 824.590468 368.294799 
" clip-path="url(#p9acf428a92)" style="fill: none; stroke: #bebebe; stroke-width: 0.8; stroke-linecap: square"/>
   </g>
   <g id="line2d_18">
    <path d="M 878.689635 402.662285 
L 878.860979 402.039823 
L 879.02957 401.416609 
L 879.195403 400.792656 
L 879.358476 400.167976 
L 879.518784 399.54258 
L 879.676327 398.916482 
L 879.831099 398.289694 
L 879.983098 397.662227 
L 880.132321 397.034095 
L 880.278766 396.405309 
L 880.422428 395.775881 
L 880.563307 395.145824 
L 880.701398 394.515151 
L 880.836699 393.883873 
L 880.969207 393.252003 
L 881.09892 392.619553 
L 881.225836 391.986536 
L 881.349951 391.352964 
L 881.471263 390.71885 
L 881.589771 390.084205 
L 881.705471 389.449042 
L 881.818362 388.813374 
L 881.928441 388.177213 
L 882.035705 387.540572 
L 882.140154 386.903462 
L 882.241785 386.265897 
L 882.340596 385.627889 
L 882.436584 384.98945 
L 882.529749 384.350593 
L 882.620088 383.71133 
L 882.707599 383.071674 
L 882.792282 382.431637 
L 882.874133 381.791232 
L 882.953152 381.150472 
L 883.029337 380.509368 
L 883.102687 379.867934 
L 883.1732 379.226181 
L 883.240874 378.584124 
L 883.305709 377.941773 
L 883.367703 377.299142 
L 883.426854 376.656243 
L 883.483163 376.013088 
L 883.536627 375.369691 
L 883.587246 374.726064 
L 883.635018 374.08222 
L 883.679943 373.43817 
L 883.72202 372.793928 
L 883.761248 372.149506 
L 883.797626 371.504918 
" clip-path="url(#p9acf428a92)" style="fill: none; stroke: #bebebe; stroke-width: 0.8; stroke-linecap: square"/>
   </g>
   <g id="line2d_19">
    <path d="M 935.822481 418.525142 
L 936.063407 417.649903 
L 936.300461 416.773607 
L 936.533638 415.896272 
L 936.762933 415.017915 
L 936.988342 414.138552 
L 937.20986 413.258201 
L 937.427484 412.376879 
L 937.641209 411.494604 
L 937.85103 410.611392 
L 938.056945 409.727261 
L 938.258948 408.842229 
L 938.457035 407.956311 
L 938.651204 407.069527 
L 938.841449 406.181893 
L 939.027768 405.293426 
L 939.210157 404.404144 
L 939.388611 403.514064 
L 939.563129 402.623204 
L 939.733705 401.731581 
L 939.900338 400.839212 
L 940.063023 399.946115 
L 940.221757 399.052308 
L 940.376538 398.157808 
L 940.527363 397.262631 
L 940.674227 396.366797 
L 940.817129 395.470322 
L 940.956066 394.573225 
L 941.091035 393.675521 
L 941.222033 392.77723 
L 941.349058 391.878368 
L 941.472107 390.978953 
L 941.591178 390.079003 
L 941.706269 389.178535 
L 941.817377 388.277567 
L 941.9245 387.376117 
L 942.027636 386.474201 
L 942.126783 385.571839 
L 942.22194 384.669047 
L 942.313103 383.765843 
L 942.400272 382.862245 
L 942.483445 381.95827 
L 942.56262 381.053936 
L 942.637795 380.149261 
L 942.70897 379.244263 
L 942.776142 378.338958 
L 942.839311 377.433366 
L 942.898475 376.527503 
L 942.953633 375.621387 
L 943.004784 374.715036 
" clip-path="url(#p9acf428a92)" style="fill: none; stroke: #bebebe; stroke-width: 0.8; stroke-linecap: square"/>
   </g>
   <g id="line2d_20">
    <path d="M 992.955328 434.387998 
L 993.265835 433.259983 
L 993.571352 432.130606 
L 993.871872 430.999889 
L 994.16739 429.867854 
L 994.457899 428.734524 
L 994.743394 427.59992 
L 995.023869 426.464065 
L 995.29932 425.326981 
L 995.569739 424.18869 
L 995.835124 423.049214 
L 996.095467 421.908576 
L 996.350764 420.766798 
L 996.60101 419.623903 
L 996.8462 418.479912 
L 997.086329 417.334848 
L 997.321393 416.188734 
L 997.551387 415.041591 
L 997.776307 413.893443 
L 997.996147 412.744311 
L 998.210905 411.594219 
L 998.420575 410.443188 
L 998.625153 409.291242 
L 998.824636 408.138402 
L 999.01902 406.984691 
L 999.2083 405.830132 
L 999.392473 404.674748 
L 999.571536 403.51856 
L 999.745485 402.361592 
L 999.914317 401.203866 
L 1000.078027 400.045405 
L 1000.236614 398.886231 
L 1000.390074 397.726368 
L 1000.538404 396.565837 
L 1000.681601 395.404662 
L 1000.819662 394.242865 
L 1000.952585 393.080469 
L 1001.080367 391.917496 
L 1001.203005 390.75397 
L 1001.320498 389.589913 
L 1001.432842 388.425348 
L 1001.540036 387.260297 
L 1001.642077 386.094784 
L 1001.738964 384.928831 
L 1001.830694 383.762461 
L 1001.917266 382.595697 
L 1001.998679 381.428562 
L 1002.07493 380.261078 
L 1002.146018 379.093268 
L 1002.211941 377.925155 
" clip-path="url(#p9acf428a92)" style="fill: none; stroke: #bebebe; stroke-width: 0.8; stroke-linecap: square"/>
   </g>
   <g id="line2d_21">
    <path d="M 747.603242 355.442933 
L 747.603242 355.442933 
L 747.603242 355.442933 
L 747.603242 355.442933 
L 747.603242 355.442933 
L 747.603242 355.442933 
L 747.603242 355.442933 
L 747.603242 355.442933 
L 747.603242 355.442933 
L 747.603242 355.442933 
L 747.603242 355.442933 
L 747.603242 355.442933 
L 747.603242 355.442933 
L 747.603242 355.442933 
L 747.603242 355.442933 
L 747.603242 355.442933 
L 747.603242 355.442933 
L 747.603242 355.442933 
L 747.603242 355.442933 
L 747.603242 355.442933 
L 747.603242 355.442933 
L 747.603242 355.442933 
L 747.603242 355.442933 
L 747.603242 355.442933 
L 747.603242 355.442933 
L 747.603242 355.442933 
L 747.603242 355.442933 
L 747.603242 355.442933 
L 747.603242 355.442933 
L 747.603242 355.442933 
L 747.603242 355.442933 
L 747.603242 355.442933 
L 747.603242 355.442933 
L 747.603242 355.442933 
L 747.603242 355.442933 
L 747.603242 355.442933 
L 747.603242 355.442933 
L 747.603242 355.442933 
L 747.603242 355.442933 
L 747.603242 355.442933 
L 747.603242 355.442933 
L 747.603242 355.442933 
L 747.603242 355.442933 
L 747.603242 355.442933 
L 747.603242 355.442933 
L 747.603242 355.442933 
L 747.603242 355.442933 
L 747.603242 355.442933 
L 747.603242 355.442933 
L 747.603242 355.442933 
" clip-path="url(#p9acf428a92)" style="fill: none; stroke: #333333; stroke-width: 1.5; stroke-linecap: square"/>
   </g>
   <g id="line2d_22">
    <path d="M 818.558675 331.50249 
L 818.415964 331.146602 
L 818.27168 330.791348 
L 818.125827 330.436735 
L 817.978407 330.082771 
L 817.829424 329.729462 
L 817.67888 329.376815 
L 817.526778 329.024838 
L 817.373122 328.673536 
L 817.217913 328.322917 
L 817.061156 327.972988 
L 816.902853 327.623756 
L 816.743007 327.275227 
L 816.581622 326.927408 
L 816.4187 326.580306 
L 816.254246 326.233928 
L 816.088261 325.88828 
L 815.920749 325.54337 
L 815.751715 325.199203 
L 815.58116 324.855788 
L 815.409088 324.51313 
L 815.235503 324.171236 
L 815.060408 323.830113 
L 814.883806 323.489768 
L 814.705701 323.150207 
L 814.526096 322.811436 
L 814.344995 322.473463 
L 814.162402 322.136295 
L 813.978319 321.799936 
L 813.792751 321.464395 
L 813.605701 321.129678 
L 813.417173 320.795792 
L 813.227171 320.462742 
L 813.035698 320.130535 
L 812.842757 319.799178 
L 812.648354 319.468678 
L 812.452491 319.139041 
L 812.255172 318.810272 
L 812.056402 318.48238 
L 811.856184 318.155369 
L 811.654521 317.829247 
L 811.451419 317.50402 
L 811.246881 317.179694 
L 811.04091 316.856276 
L 810.833512 316.533772 
L 810.62469 316.212188 
L 810.414447 315.89153 
L 810.202789 315.571805 
L 809.98972 315.253019 
L 809.775242 314.935178 
" clip-path="url(#p9acf428a92)" style="fill: none; stroke: #bebebe; stroke-width: 0.8; stroke-linecap: square"/>
   </g>
   <g id="line2d_23">
    <path d="M 873.64153 309.555475 
L 873.401238 308.956244 
L 873.158299 308.358081 
L 872.912717 307.760998 
L 872.664498 307.165007 
L 872.413646 306.57012 
L 872.160166 305.976347 
L 871.904063 305.383701 
L 871.645341 304.792193 
L 871.384007 304.201835 
L 871.120066 303.612638 
L 870.853521 303.024614 
L 870.584379 302.437775 
L 870.312645 301.852131 
L 870.038324 301.267694 
L 869.761422 300.684476 
L 869.481944 300.102489 
L 869.199894 299.521742 
L 868.91528 298.942248 
L 868.628107 298.364019 
L 868.338379 297.787065 
L 868.046103 297.211398 
L 867.751285 296.637028 
L 867.453929 296.063968 
L 867.154043 295.492228 
L 866.851632 294.92182 
L 866.546701 294.352755 
L 866.239258 293.785043 
L 865.929307 293.218696 
L 865.616855 292.653726 
L 865.301908 292.090142 
L 864.984472 291.527957 
L 864.664553 290.96718 
L 864.342158 290.407824 
L 864.017292 289.849899 
L 863.689963 289.293415 
L 863.360177 288.738385 
L 863.02794 288.184818 
L 862.693258 287.632725 
L 862.356138 287.082118 
L 862.016587 286.533006 
L 861.674612 285.985402 
L 861.330218 285.439315 
L 860.983413 284.894756 
L 860.634204 284.351735 
L 860.282597 283.810264 
L 859.928599 283.270354 
L 859.572218 282.732013 
L 859.213459 282.195254 
L 858.852331 281.660086 
" clip-path="url(#p9acf428a92)" style="fill: none; stroke: #bebebe; stroke-width: 0.8; stroke-linecap: square"/>
   </g>
   <g id="line2d_24">
    <path d="M 928.724385 287.608459 
L 928.386513 286.765886 
L 928.044918 285.924814 
L 927.699608 285.085262 
L 927.350589 284.247244 
L 926.997867 283.410777 
L 926.641451 282.575879 
L 926.281347 281.742564 
L 925.917561 280.91085 
L 925.550102 280.080753 
L 925.178976 279.252289 
L 924.80419 278.425473 
L 924.425752 277.600323 
L 924.043669 276.776854 
L 923.657949 275.955083 
L 923.268598 275.135025 
L 922.875626 274.316697 
L 922.479039 273.500115 
L 922.078846 272.685294 
L 921.675053 271.87225 
L 921.26767 271.061 
L 920.856703 270.251559 
L 920.442162 269.443943 
L 920.024053 268.638168 
L 919.602386 267.83425 
L 919.177168 267.032204 
L 918.748407 266.232046 
L 918.316114 265.433791 
L 917.880294 264.637456 
L 917.440958 263.843056 
L 916.998114 263.050606 
L 916.55177 262.260122 
L 916.101935 261.471619 
L 915.648618 260.685113 
L 915.191827 259.900619 
L 914.731573 259.118152 
L 914.267863 258.337729 
L 913.800707 257.559363 
L 913.330114 256.78307 
L 912.856093 256.008866 
L 912.378653 255.236765 
L 911.897804 254.466783 
L 911.413555 253.698935 
L 910.925916 252.933235 
L 910.434896 252.169699 
L 909.940504 251.408341 
L 909.442751 250.649177 
L 908.941646 249.892222 
L 908.437199 249.137489 
L 907.92942 248.384994 
" clip-path="url(#p9acf428a92)" style="fill: none; stroke: #bebebe; stroke-width: 0.8; stroke-linecap: square"/>
   </g>
   <g id="line2d_25">
    <path d="M 983.80724 265.661444 
L 983.371787 264.575528 
L 982.931537 263.491548 
L 982.486498 262.409525 
L 982.036679 261.32948 
L 981.582089 260.251435 
L 981.122737 259.175411 
L 980.658631 258.101428 
L 980.189781 257.029508 
L 979.716196 255.959671 
L 979.237885 254.891939 
L 978.754858 253.826332 
L 978.267124 252.762871 
L 977.774692 251.701577 
L 977.277573 250.642472 
L 976.775775 249.585574 
L 976.269309 248.530906 
L 975.758184 247.478487 
L 975.242411 246.428339 
L 974.722 245.380481 
L 974.196961 244.334935 
L 973.667303 243.29172 
L 973.133038 242.250858 
L 972.594176 241.212368 
L 972.050728 240.176271 
L 971.502703 239.142588 
L 970.950114 238.111337 
L 970.392969 237.08254 
L 969.831282 236.056216 
L 969.265061 235.032386 
L 968.69432 234.01107 
L 968.119068 232.992287 
L 967.539317 231.976058 
L 966.955078 230.962402 
L 966.366362 229.951339 
L 965.773182 228.94289 
L 965.175549 227.937073 
L 964.573474 226.933908 
L 963.96697 225.933415 
L 963.356047 224.935614 
L 962.740719 223.940524 
L 962.120997 222.948165 
L 961.496893 221.958555 
L 960.868419 220.971714 
L 960.235588 219.987663 
L 959.598412 219.006418 
L 958.956903 218.028001 
L 958.311075 217.05243 
L 957.660939 216.079724 
L 957.006509 215.109903 
" clip-path="url(#p9acf428a92)" style="fill: none; stroke: #bebebe; stroke-width: 0.8; stroke-linecap: square"/>
   </g>
   <g id="line2d_26">
    <path d="M 743.290603 352.16455 
L 743.214641 352.129712 
L 743.13845 352.095378 
L 743.062034 352.061551 
L 742.985394 352.028231 
L 742.908535 351.99542 
L 742.831461 351.963119 
L 742.754173 351.931331 
L 742.676677 351.900056 
L 742.598975 351.869295 
L 742.52107 351.839051 
L 742.442967 351.809324 
L 742.364668 351.780115 
L 742.286177 351.751427 
L 742.207498 351.72326 
L 742.128634 351.695615 
L 742.049588 351.668494 
L 741.970364 351.641898 
L 741.890965 351.615827 
L 741.811395 351.590284 
L 741.731657 351.56527 
L 741.651755 351.540784 
L 741.571693 351.516829 
L 741.491473 351.493406 
L 741.4111 351.470515 
L 741.330577 351.448158 
L 741.249907 351.426336 
L 741.169095 351.405049 
L 741.088142 351.384298 
L 741.007055 351.364085 
L 740.925834 351.34441 
L 740.844485 351.325274 
L 740.763011 351.306678 
L 740.681416 351.288623 
L 740.599702 351.271109 
L 740.517874 351.254138 
L 740.435936 351.23771 
L 740.35389 351.221826 
L 740.27174 351.206486 
L 740.189491 351.191691 
L 740.107145 351.177442 
L 740.024707 351.16374 
L 739.94218 351.150585 
L 739.859567 351.137977 
L 739.776872 351.125918 
L 739.6941 351.114407 
L 739.611252 351.103446 
L 739.528334 351.093034 
L 739.445349 351.083173 
L 739.3623 351.073862 
" clip-path="url(#p9acf428a92)" style="fill: none; stroke: #333333; stroke-width: 1.5; stroke-linecap: square"/>
   </g>
   <g id="line2d_27">
    <path d="M 797.635679 300.643379 
L 797.356724 300.380306 
L 797.076608 300.11847 
L 796.795338 299.857874 
L 796.512917 299.598525 
L 796.229353 299.340427 
L 795.944651 299.083585 
L 795.658815 298.828005 
L 795.371853 298.573691 
L 795.083768 298.320649 
L 794.794568 298.068882 
L 794.504257 297.818397 
L 794.212841 297.569198 
L 793.920327 297.32129 
L 793.626719 297.074678 
L 793.332023 296.829366 
L 793.036246 296.58536 
L 792.739393 296.342664 
L 792.441469 296.101283 
L 792.142481 295.861222 
L 791.842435 295.622485 
L 791.541336 295.385077 
L 791.23919 295.149003 
L 790.936003 294.914267 
L 790.631781 294.680874 
L 790.32653 294.448828 
L 790.020257 294.218135 
L 789.712966 293.988798 
L 789.404664 293.760822 
L 789.095357 293.534211 
L 788.785051 293.30897 
L 788.473752 293.085103 
L 788.161467 292.862615 
L 787.8482 292.64151 
L 787.533959 292.421793 
L 787.21875 292.203467 
L 786.902578 291.986537 
L 786.585451 291.771007 
L 786.267373 291.556881 
L 785.948352 291.344164 
L 785.628393 291.132859 
L 785.307503 290.922972 
L 784.985688 290.714505 
L 784.662955 290.507463 
L 784.339309 290.30185 
L 784.014757 290.097671 
L 783.689306 289.894928 
L 783.362961 289.693626 
L 783.035729 289.49377 
L 782.707617 289.295362 
" clip-path="url(#p9acf428a92)" style="fill: none; stroke: #bebebe; stroke-width: 0.8; stroke-linecap: square"/>
   </g>
   <g id="line2d_28">
    <path d="M 838.412212 257.596117 
L 837.942518 257.153166 
L 837.47087 256.712295 
L 836.997278 256.273515 
L 836.52175 255.836833 
L 836.044296 255.402257 
L 835.564925 254.969798 
L 835.083646 254.539462 
L 834.60047 254.111258 
L 834.115404 253.685195 
L 833.62846 253.26128 
L 833.139646 252.839523 
L 832.648972 252.419932 
L 832.156447 252.002514 
L 831.662082 251.587278 
L 831.165885 251.174232 
L 830.667867 250.763384 
L 830.168037 250.354742 
L 829.666405 249.948315 
L 829.162981 249.544109 
L 828.657775 249.142133 
L 828.150796 248.742395 
L 827.642054 248.344902 
L 827.13156 247.949663 
L 826.619324 247.556685 
L 826.105355 247.165976 
L 825.589663 246.777543 
L 825.072258 246.391394 
L 824.553152 246.007537 
L 824.032353 245.625979 
L 823.509872 245.246727 
L 822.985719 244.869789 
L 822.459905 244.495173 
L 821.93244 244.122885 
L 821.403333 243.752933 
L 820.872596 243.385324 
L 820.340239 243.020066 
L 819.806272 242.657165 
L 819.270705 242.296628 
L 818.733549 241.938464 
L 818.194815 241.582677 
L 817.654514 241.229277 
L 817.112654 240.878269 
L 816.569249 240.52966 
L 816.024306 240.183457 
L 815.477839 239.839667 
L 814.929857 239.498297 
L 814.38037 239.159354 
L 813.829391 238.822843 
L 813.276928 238.488772 
" clip-path="url(#p9acf428a92)" style="fill: none; stroke: #bebebe; stroke-width: 0.8; stroke-linecap: square"/>
   </g>
   <g id="line2d_29">
    <path d="M 879.188744 214.548855 
L 878.528312 213.926025 
L 877.865132 213.306121 
L 877.199218 212.689155 
L 876.530582 212.07514 
L 875.859238 211.464088 
L 875.185199 210.85601 
L 874.508477 210.250918 
L 873.829087 209.648824 
L 873.147041 209.049741 
L 872.462353 208.453678 
L 871.775035 207.86065 
L 871.085103 207.270666 
L 870.392568 206.683738 
L 869.697445 206.099878 
L 868.999747 205.519098 
L 868.299488 204.941408 
L 867.596682 204.366821 
L 866.891341 203.795346 
L 866.183481 203.226996 
L 865.473115 202.661781 
L 864.760256 202.099713 
L 864.044919 201.540802 
L 863.327118 200.98506 
L 862.606866 200.432497 
L 861.884179 199.883124 
L 861.159069 199.336952 
L 860.431551 198.793991 
L 859.70164 198.254253 
L 858.969349 197.717747 
L 858.234693 197.184484 
L 857.497687 196.654475 
L 856.758344 196.12773 
L 856.016679 195.60426 
L 855.272707 195.084074 
L 854.526442 194.567182 
L 853.777899 194.053595 
L 853.027093 193.543323 
L 852.274037 193.036376 
L 851.518747 192.532764 
L 850.761238 192.032496 
L 850.001524 191.535582 
L 849.239621 191.042033 
L 848.475542 190.551857 
L 847.709304 190.065064 
L 846.940921 189.581664 
L 846.170408 189.101667 
L 845.39778 188.625081 
L 844.623052 188.151916 
L 843.84624 187.682181 
" clip-path="url(#p9acf428a92)" style="fill: none; stroke: #bebebe; stroke-width: 0.8; stroke-linecap: square"/>
   </g>
   <g id="line2d_30">
    <path d="M 919.965277 171.501593 
L 919.114106 170.698884 
L 918.259394 169.899946 
L 917.401158 169.104796 
L 916.539415 168.313448 
L 915.674181 167.525918 
L 914.805473 166.742222 
L 913.933308 165.962374 
L 913.057704 165.186391 
L 912.178677 164.414287 
L 911.296245 163.646077 
L 910.410425 162.881776 
L 909.521233 162.121399 
L 908.628689 161.364962 
L 907.732808 160.612479 
L 906.833609 159.863964 
L 905.931109 159.119432 
L 905.025326 158.378899 
L 904.116277 157.642377 
L 903.203981 156.909883 
L 902.288455 156.181429 
L 901.369716 155.45703 
L 900.447784 154.736701 
L 899.522675 154.020456 
L 898.594409 153.308308 
L 897.663003 152.600271 
L 896.728475 151.89636 
L 895.790844 151.196588 
L 894.850128 150.500968 
L 893.906345 149.809515 
L 892.959515 149.122242 
L 892.009654 148.439161 
L 891.056783 147.760288 
L 890.100919 147.085634 
L 889.142081 146.415214 
L 888.180288 145.74904 
L 887.21556 145.087124 
L 886.247913 144.429482 
L 885.277369 143.776124 
L 884.303945 143.127064 
L 883.327661 142.482314 
L 882.348535 141.841887 
L 881.366587 141.205797 
L 880.381836 140.574054 
L 879.394302 139.946671 
L 878.404003 139.323661 
L 877.410959 138.705036 
L 876.415189 138.090808 
L 875.416713 137.480989 
L 874.415551 136.875591 
" clip-path="url(#p9acf428a92)" style="fill: none; stroke: #bebebe; stroke-width: 0.8; stroke-linecap: square"/>
   </g>
   <g id="text_1">
    <g id="text_2">
     <g id="text_3">
      <g id="text_4">
       <g id="text_5">
        <g id="text_6"/>
       </g>
       <defs>
        <clipPath id="p9acf428a92">
         <path d="M 1015.2 363.6 
C 1015.2 327.19843 1008.029684 291.150818 994.099406 257.520153 
C 980.169128 223.889487 959.749797 193.329798 934.01 167.59 
C 908.270202 141.850203 877.710513 121.430872 844.079847 107.500594 
C 810.449182 93.570316 774.40157 86.4 738 86.4 
C 701.59843 86.4 665.550818 93.570316 631.920153 107.500594 
C 598.289487 121.430872 567.729798 141.850203 541.99 167.59 
C 516.250203 193.329798 495.830872 223.889487 481.900594 257.520153 
C 467.970316 291.150818 460.8 327.19843 460.8 363.6 
C 460.8 400.00157 467.970316 436.049182 481.900594 469.679847 
C 495.830872 503.310513 516.250203 533.870202 541.99 559.61 
C 567.729798 585.349797 598.289487 605.769128 631.920153 619.699406 
C 665.550818 633.629684 701.59843 640.8 738 640.8 
C 774.40157 640.8 810.449182 633.629684 844.079847 619.699406 
C 877.710513 605.769128 908.270202 585.349797 934.01 559.61 
C 959.749797 533.870202 980.169128 503.310513 994.099406 469.679847 
C 1008.029684 436.049182 1015.2 400.00157 1015.2 363.6 
M 738 363.6 
C 738 363.6 738 363.6 738 363.6 
C 738 363.6 738 363.6 738 363.6 
C 738 363.6 738 363.6 738 363.6 
C 738 363.6 738 363.6 738 363.6 
C 738 363.6 738 363.6 738 363.6 
C 738 363.6 738 363.6 738 363.6 
C 738 363.6 738 363.6 738 363.6 
C 738 363.6 738 363.6 738 363.6 
C 738 363.6 738 363.6 738 363.6 
C 738 363.6 738 363.6 738 363.6 
C 738 363.6 738 363.6 738 363.6 
C 738 363.6 738 363.6 738 363.6 
C 738 363.6 738 363.6 738 363.6 
C 738 363.6 738 363.6 738 363.6 
C 738 363.6 738 363.6 738 363.6 
C 738 363.6 738 363.6 738 363.6 
M 1015.2 363.6 
z
"/>
        </clipPath>
       </defs>
      </g>
     </g>
    </g>
   </g>
  </g>
 </g>
</svg>
